<svg width="100" height="100" viewBox="0 0 100 100" fill="none" xmlns="http://www.w3.org/2000/svg">
<circle cx="49.5" cy="49.5" r="44.5" fill="white"/>
<path d="M49.75 80C51.5 80 52.9792 79.3958 54.1875 78.1875C55.3958 76.9792 56 75.5 56 73.75C56 72 55.3958 70.5208 54.1875 69.3125C52.9792 68.1042 51.5 67.5 49.75 67.5C48 67.5 46.5208 68.1042 45.3125 69.3125C44.1042 70.5208 43.5 72 43.5 73.75C43.5 75.5 44.1042 76.9792 45.3125 78.1875C46.5208 79.3958 48 80 49.75 80ZM45.25 60.75H54.5C54.5 58 54.8125 55.8333 55.4375 54.25C56.0625 52.6667 57.8333 50.5 60.75 47.75C62.9167 45.5833 64.625 43.5208 65.875 41.5625C67.125 39.6042 67.75 37.25 67.75 34.5C67.75 29.8333 66.0417 26.25 62.625 23.75C59.2083 21.25 55.1667 20 50.5 20C45.75 20 41.8958 21.25 38.9375 23.75C35.9792 26.25 33.9167 29.25 32.75 32.75L41 36C41.4167 34.5 42.3542 32.875 43.8125 31.125C45.2708 29.375 47.5 28.5 50.5 28.5C53.1667 28.5 55.1667 29.2292 56.5 30.6875C57.8333 32.1458 58.5 33.75 58.5 35.5C58.5 37.1667 58 38.7292 57 40.1875C56 41.6458 54.75 43 53.25 44.25C49.5833 47.5 47.3333 49.9583 46.5 51.625C45.6667 53.2917 45.25 56.3333 45.25 60.75ZM50 100C43.0833 100 36.5833 98.6875 30.5 96.0625C24.4167 93.4375 19.125 89.875 14.625 85.375C10.125 80.875 6.5625 75.5833 3.9375 69.5C1.3125 63.4167 0 56.9167 0 50C0 43.0833 1.3125 36.5833 3.9375 30.5C6.5625 24.4167 10.125 19.125 14.625 14.625C19.125 10.125 24.4167 6.5625 30.5 3.9375C36.5833 1.3125 43.0833 0 50 0C56.9167 0 63.4167 1.3125 69.5 3.9375C75.5833 6.5625 80.875 10.125 85.375 14.625C89.875 19.125 93.4375 24.4167 96.0625 30.5C98.6875 36.5833 100 43.0833 100 50C100 56.9167 98.6875 63.4167 96.0625 69.5C93.4375 75.5833 89.875 80.875 85.375 85.375C80.875 89.875 75.5833 93.4375 69.5 96.0625C63.4167 98.6875 56.9167 100 50 100ZM50 90C61.1667 90 70.625 86.125 78.375 78.375C86.125 70.625 90 61.1667 90 50C90 38.8333 86.125 29.375 78.375 21.625C70.625 13.875 61.1667 10 50 10C38.8333 10 29.375 13.875 21.625 21.625C13.875 29.375 10 38.8333 10 50C10 61.1667 13.875 70.625 21.625 78.375C29.375 86.125 38.8333 90 50 90Z" fill="#FF6E7D"/>
</svg>
