<svg width="147" height="119" viewBox="0 0 147 119" fill="none" xmlns="http://www.w3.org/2000/svg">
<mask id="path-1-inside-1_63_276" fill="white">
<rect x="77" y="33" width="70" height="55" rx="5"/>
</mask>
<rect x="77" y="33" width="70" height="55" rx="5" fill="#1E1E1E" stroke="#FF6E7D" stroke-width="16" mask="url(#path-1-inside-1_63_276)"/>
<path d="M9.75 59.067L46.875 37.6329L84 16.1987C84.1136 16.1331 84.192 16.1233 84.2494 16.1243C84.3206 16.1256 84.4097 16.1466 84.5 16.1987C84.5903 16.2508 84.6531 16.3175 84.6897 16.3786C84.7193 16.4278 84.75 16.5005 84.75 16.6317V59.5V102.368C84.75 102.499 84.7193 102.572 84.6897 102.621C84.6531 102.682 84.5903 102.749 84.5 102.801C84.4097 102.853 84.3206 102.874 84.2494 102.876C84.192 102.877 84.1136 102.867 84 102.801L46.875 81.3671L9.74999 59.933C9.63636 59.8674 9.58871 59.8044 9.56087 59.7542C9.52637 59.692 9.5 59.6042 9.5 59.5C9.5 59.3958 9.52637 59.308 9.56087 59.2458C9.58871 59.1956 9.63637 59.1326 9.75 59.067Z" fill="#1E1E1E" stroke="#FF6E7D" stroke-width="9"/>
<rect x="71" y="41" width="20" height="39" fill="#1E1E1E"/>
</svg>
