<svg width="100" height="100" viewBox="0 0 100 100" fill="none" xmlns="http://www.w3.org/2000/svg">
<mask id="mask0_5_25" style="mask-type:alpha" maskUnits="userSpaceOnUse" x="0" y="0" width="100" height="100">
<rect width="100" height="100" fill="#D9D9D9"/>
</mask>
<g mask="url(#mask0_5_25)">
<path d="M21.25 66.875C19.7222 64.2361 18.5764 61.5278 17.8125 58.75C17.0486 55.9722 16.6667 53.125 16.6667 50.2083C16.6667 40.9028 19.8959 32.9861 26.3542 26.4583C32.8125 19.9306 40.6945 16.6667 50 16.6667H50.7292L44.0625 10L49.8959 4.16667L66.5625 20.8333L49.8959 37.5L44.0625 31.6667L50.7292 25H50C43.0556 25 37.1528 27.4479 32.2917 32.3438C27.4306 37.2396 25 43.1944 25 50.2083C25 52.0139 25.2084 53.7847 25.625 55.5208C26.0417 57.2569 26.6667 58.9583 27.5 60.625L21.25 66.875ZM50.1042 95.8333L33.4375 79.1667L50.1042 62.5L55.9375 68.3333L49.2709 75H50C56.9445 75 62.8472 72.5521 67.7084 67.6563C72.5695 62.7604 75 56.8056 75 49.7917C75 47.9861 74.7917 46.2153 74.375 44.4792C73.9584 42.7431 73.3334 41.0417 72.5 39.375L78.75 33.125C80.2778 35.7639 81.4236 38.4722 82.1875 41.25C82.9514 44.0278 83.3334 46.875 83.3334 49.7917C83.3334 59.0972 80.1042 67.0139 73.6459 73.5417C67.1875 80.0694 59.3056 83.3333 50 83.3333H49.2709L55.9375 90L50.1042 95.8333Z" fill="white"/>
</g>
</svg>
